{
	"asset":{
		"generator":"Khronos glTF Blender I/O v4.1.63",
		"version":"2.0"
	},
	"scene":0,
	"scenes":[
		{
			"name":"Scene",
			"nodes":[
				0,
				1
			]
		}
	],
	"nodes":[
		{
			"mesh":0,
			"name":"Sphere.001"
		},
		{
			"mesh":1,
			"name":"Torus",
			"rotation":[
				-0.04361893981695175,
				0.4158792793750763,
				-0.09475377947092056,
				0.9034178256988525
			],
			"scale":[
				1.4444741010665894,
				1.4444739818572998,
				1.4444737434387207
			],
			"translation":[
				0.04763340950012207,
				0,
				-0.034470319747924805
			]
		}
	],
	"materials":[
		{
			"doubleSided":true,
			"name":"Material",
			"pbrMetallicRoughness":{
				"baseColorTexture":{
					"index":0
				},
				"metallicFactor":0,
				"roughnessFactor":0.5
			}
		},
		{
			"doubleSided":true,
			"name":"Material.001",
			"pbrMetallicRoughness":{
				"baseColorTexture":{
					"index":1
				},
				"metallicFactor":0,
				"roughnessFactor":0.5
			}
		}
	],
	"meshes":[
		{
			"name":"Sphere.001",
			"primitives":[
				{
					"attributes":{
						"POSITION":0,
						"NORMAL":1,
						"TEXCOORD_0":2
					},
					"indices":3,
					"material":0
				}
			]
		},
		{
			"name":"Torus",
			"primitives":[
				{
					"attributes":{
						"POSITION":4,
						"NORMAL":5,
						"TEXCOORD_0":6
					},
					"indices":7,
					"material":1
				}
			]
		}
	],
	"textures":[
		{
			"sampler":0,
			"source":0
		},
		{
			"sampler":0,
			"source":1
		}
	],
	"images":[
		{
			"mimeType":"image/png",
			"name":"HeroImgTexture",
			"uri":"HeroImgTexture.png"
		},
		{
			"mimeType":"image/png",
			"name":"TorusTextureOne",
			"uri":"TorusTextureOne.png"
		}
	],
	"accessors":[
		{
			"bufferView":0,
			"componentType":5126,
			"count":1984,
			"max":[
				0.9999997019767761,
				1,
				0.9999993443489075
			],
			"min":[
				-0.9999990463256836,
				-1,
				-1
			],
			"type":"VEC3"
		},
		{
			"bufferView":1,
			"componentType":5126,
			"count":1984,
			"type":"VEC3"
		},
		{
			"bufferView":2,
			"componentType":5126,
			"count":1984,
			"type":"VEC2"
		},
		{
			"bufferView":3,
			"componentType":5123,
			"count":2880,
			"type":"SCALAR"
		},
		{
			"bufferView":4,
			"componentType":5126,
			"count":2304,
			"max":[
				1.0089037418365479,
				0.008930757641792297,
				1.0089037418365479
			],
			"min":[
				-1.0089037418365479,
				-0.008930757641792297,
				-1.0089037418365479
			],
			"type":"VEC3"
		},
		{
			"bufferView":5,
			"componentType":5126,
			"count":2304,
			"type":"VEC3"
		},
		{
			"bufferView":6,
			"componentType":5126,
			"count":2304,
			"type":"VEC2"
		},
		{
			"bufferView":7,
			"componentType":5123,
			"count":3456,
			"type":"SCALAR"
		}
	],
	"bufferViews":[
		{
			"buffer":0,
			"byteLength":23808,
			"byteOffset":0,
			"target":34962
		},
		{
			"buffer":0,
			"byteLength":23808,
			"byteOffset":23808,
			"target":34962
		},
		{
			"buffer":0,
			"byteLength":15872,
			"byteOffset":47616,
			"target":34962
		},
		{
			"buffer":0,
			"byteLength":5760,
			"byteOffset":63488,
			"target":34963
		},
		{
			"buffer":0,
			"byteLength":27648,
			"byteOffset":69248,
			"target":34962
		},
		{
			"buffer":0,
			"byteLength":27648,
			"byteOffset":96896,
			"target":34962
		},
		{
			"buffer":0,
			"byteLength":18432,
			"byteOffset":124544,
			"target":34962
		},
		{
			"buffer":0,
			"byteLength":6912,
			"byteOffset":142976,
			"target":34963
		}
	],
	"samplers":[
		{
			"magFilter":9729,
			"minFilter":9987
		}
	],
	"buffers":[
		{
			"byteLength":149888,
			"uri":"HeroPlanet.bin"
		}
	]
}
