<svg width="82" height="82" viewBox="0 0 82 82" fill="none" xmlns="http://www.w3.org/2000/svg">
<g clip-path="url(#clip0_164_382)">
<path fill-rule="evenodd" clip-rule="evenodd" d="M9.11111 82H72.8889C77.9208 82 82 77.9208 82 72.8889V9.11111C82 4.07918 77.9208 0 72.8889 0H9.11111C4.07918 0 0 4.07918 0 9.11111V72.8889C0 77.9208 4.07918 82 9.11111 82Z" fill="#0A66C2"/>
<path fill-rule="evenodd" clip-rule="evenodd" d="M70.6111 70.6109H58.4428V49.8855C58.4428 44.2032 56.2837 41.0277 51.7861 41.0277C46.8933 41.0277 44.3371 44.3323 44.3371 49.8855V70.6109H32.6102V31.1294H44.3371V36.4476C44.3371 36.4476 47.863 29.9232 56.2413 29.9232C64.6157 29.9232 70.6111 35.0371 70.6111 45.6137V70.6109ZM18.6201 25.9596C14.6257 25.9596 11.3889 22.6974 11.3889 18.6742C11.3889 14.6509 14.6257 11.3887 18.6201 11.3887C22.6145 11.3887 25.8494 14.6509 25.8494 18.6742C25.8494 22.6974 22.6145 25.9596 18.6201 25.9596ZM12.5649 70.6109H24.793V31.1294H12.5649V70.6109Z" fill="white"/>
</g>
<defs>
<clipPath id="clip0_164_382">
<rect width="82" height="82" fill="white"/>
</clipPath>
</defs>
</svg>
