<svg width="66" height="80" viewBox="0 0 66 80" fill="none" xmlns="http://www.w3.org/2000/svg">
<path d="M24.9304 11.5131H34.1063C34.478 11.5131 34.7991 11.6483 35.0695 11.9187C35.3399 12.1891 35.475 12.5101 35.475 12.8819V45.6312C35.475 46.003 35.3399 46.3241 35.0695 46.5944C34.7991 46.8648 34.478 47 34.1063 47H26.0964C25.2176 47 24.5248 46.6113 24.0178 45.834L15.4503 32.9066V45.6312C15.4503 46.003 15.3151 46.3241 15.0447 46.5944C14.7744 46.8648 14.4533 47 14.0815 47H4.90562C4.53385 47 4.21278 46.8648 3.9424 46.5944C3.67203 46.3241 3.53684 46.003 3.53684 45.6312V12.8819C3.53684 12.5101 3.67203 12.1891 3.9424 11.9187C4.21278 11.6483 4.53385 11.5131 4.90562 11.5131H12.9155C13.8618 11.5131 14.5547 11.9018 14.994 12.6791L23.5616 26.7218V12.8819C23.5616 12.5101 23.6968 12.1891 23.9672 11.9187C24.2375 11.6483 24.5586 11.5131 24.9304 11.5131Z" fill="white"/>
<path d="M62.0968 51.9513C62.0968 55.4324 60.5421 58.2375 57.4328 60.3668C54.3235 62.496 50.3523 63.5606 45.5194 63.5606C42.6466 63.5606 40.078 63.2057 37.8136 62.496C35.583 61.7862 33.8594 60.8737 32.6427 59.7584C30.2431 57.5616 29.0433 55.3141 29.0433 53.0159C29.0433 52.7117 29.1447 52.4582 29.3475 52.2555C29.584 52.0189 29.8544 51.9006 30.1586 51.9006H40.3484C40.9568 51.9006 41.5651 52.2048 42.1734 52.8131C42.7818 53.4215 43.8633 53.7256 45.418 53.7256C47.75 53.7256 48.916 52.83 48.916 51.0388C48.916 49.5517 47.7331 48.8082 45.3673 48.8082H39.2331C38.8613 48.8082 38.5403 48.673 38.2699 48.4026C37.9995 48.1322 37.8643 47.8112 37.8643 47.4394V43.333C37.8643 42.3867 38.2023 41.7108 38.8782 41.3052L45.9249 37.4524H32.592C32.2202 37.4524 31.8991 37.3172 31.6288 37.0468C31.3584 36.7764 31.2232 36.4553 31.2232 36.0836V28.9355C31.2232 28.5637 31.3584 28.2427 31.6288 27.9723C31.8991 27.7019 32.2202 27.5667 32.592 27.5667H58.5481C58.9199 27.5667 59.2409 27.7019 59.5113 27.9723C59.7817 28.2427 59.9169 28.5637 59.9169 28.9355V35.3738C59.9169 36.2526 59.5789 36.9285 58.903 37.4017L52.9716 41.4573C59.0551 42.9782 62.0968 46.4762 62.0968 51.9513Z" fill="white"/>
</svg>
