<svg width="64" height="58" viewBox="0 0 64 58" fill="none" xmlns="http://www.w3.org/2000/svg">
<path d="M19.126 51.7461C16.686 49.8261 14.086 47.9901 12.31 45.4021C8.57002 40.8361 5.69002 35.5521 3.72202 29.9961C2.53202 26.3841 2.12202 22.5101 0.590015 19.0361C-1.01398 16.5161 0.866015 13.7561 3.63002 12.9561C4.86002 12.7201 7.02202 11.5561 4.41002 12.3881C2.07002 14.1041 1.84402 10.8281 4.24402 10.6201C5.88402 10.4001 6.48402 9.06012 5.92402 7.85612C4.16402 6.70812 10.188 5.45012 7.15602 3.73612C4.00002 0.336116 11.572 -0.319884 9.70402 3.54812C9.26002 6.52012 14.996 3.00012 13.664 6.43612C15.018 8.08612 18.732 6.81212 18.638 9.12612C20.61 9.26212 21.286 10.9201 23.138 11.0461C25.058 11.9121 28.532 12.5941 29.184 14.7561C27.284 16.2621 22.878 11.6461 22.664 15.8161C23.24 21.9761 23.092 28.3201 25.344 34.1861C26.41 37.7361 28.994 40.5321 31.324 43.2981C33.558 46.0061 36.584 47.9141 39.664 49.5181C42.368 50.7941 45.284 51.6381 48.23 52.1701C49.424 51.2561 51.536 47.8581 53.398 49.2901C53.488 50.9021 49.698 52.6581 53.218 52.4801C55.288 51.8561 56.722 54.0801 58.424 52.0721C59.994 53.9321 64.944 50.8861 63.83 54.6841C62.32 55.6581 60.118 55.0701 58.606 56.4101C56.112 55.1641 54.126 57.5241 51.366 57.2261C48.3 57.7761 45.182 57.9961 42.074 58.0001C36.974 57.6001 31.768 57.4281 26.918 55.6521C24.184 54.8581 21.518 53.3021 19.118 51.7441L19.126 51.7461ZM23.432 53.6121C26.1 54.7641 28.712 55.9801 31.632 56.3481C36.272 56.9921 41.062 57.9881 45.718 57.0801C43.61 56.1281 41.432 57.4501 39.332 56.4001C36.812 56.9401 34.132 56.2601 31.532 55.9261C28.622 54.6301 25.48 53.7381 22.756 52.0541C19.35 50.8101 24.516 53.6501 25.436 53.8801C27.564 55.0881 23.096 53.2801 22.464 52.7601C20.68 51.7601 20.454 51.9681 22.288 52.9841L23.408 53.6121H23.432ZM18.352 50.0241C20.938 50.9841 18.34 48.2041 17.158 48.3641C16.634 47.4541 15.152 46.8781 16.198 46.3901C14.318 47.0421 14.23 43.9101 13.348 44.3581C11.36 43.7301 12.574 41.5061 10.208 40.1381C9.99202 38.6981 7.85602 37.4521 7.17602 35.2821C6.87602 34.1701 4.76202 30.9821 6.06002 33.9501C7.16402 36.8101 9.10801 39.2561 10.728 41.7001C11.984 44.0281 13.468 46.4601 15.756 47.9141C16.528 48.6541 17.272 49.7881 18.36 50.0201L18.352 50.0241ZM10.904 41.8441C11.376 42.6881 10.994 41.4541 10.904 41.8441ZM21.45 51.1701C22.022 50.9141 20.626 50.8461 21.45 51.1701ZM22.85 51.6821C22.704 50.9761 22.21 52.0781 22.85 51.6821ZM24.61 52.4141C25.446 51.6181 23.32 51.9141 24.61 52.4141ZM27.622 54.0941C28.13 53.3441 25.996 53.8141 27.622 54.0941ZM21.842 50.0641C23.142 49.2241 20.162 50.0521 21.842 50.0641ZM23.162 50.7241C23.122 50.2801 22.692 50.9241 23.162 50.7241ZM29.748 54.8361C30.808 55.5041 35.932 56.3001 32.724 55.1101C32.184 55.2221 26.774 53.5781 29.748 54.8361ZM19.292 46.6921C19.192 46.2481 17.648 46.2001 19.292 46.6921ZM22.358 48.4801C23.158 47.9201 20.702 48.0501 22.358 48.4801ZM24.958 50.0801C26.104 49.6481 23.102 49.6461 24.958 50.0801ZM18.04 45.3301C19.28 46.2821 23.052 45.4501 19.94 44.7621C18.526 44.0081 15.34 43.4921 17.512 45.2161L18.038 45.3301H18.04ZM26.68 50.6041C27.2 49.7241 24.508 50.1001 26.68 50.6041ZM24.054 48.5181C27.094 49.3781 21.5 46.5981 23.304 48.1981L23.704 48.3781L24.054 48.5141V48.5181ZM29.318 51.5581C32.198 51.5861 26.718 51.1581 29.318 51.5581ZM16.932 43.6641C16.82 43.1281 16.222 43.7081 16.932 43.6641ZM34.186 54.2881C34.262 53.3201 33.246 55.0081 34.186 54.2881ZM21.846 46.6681C21.672 46.1581 20.946 46.6481 21.846 46.6681ZM17.206 43.3281C18.858 43.2281 14.946 42.6001 17.206 43.3281ZM11.712 39.7801C11.506 38.9881 9.91602 38.3561 11.712 39.7801ZM26.136 48.9341C25.996 49.0081 25.836 48.5881 26.136 48.9341ZM35.112 54.4441C35.084 53.9161 34.624 54.6441 35.112 54.4441ZM25.342 48.1141C25.502 47.4341 23.932 47.9081 25.342 48.1141ZM18.654 43.8741C19.884 43.7441 16.684 43.0441 18.654 43.8741ZM29.966 50.9041C31.882 50.1441 28.1 50.5341 29.966 50.9041ZM24.082 46.9101C26.288 47.1941 21.456 45.4101 23.596 46.7501L24.082 46.9101ZM31.752 51.6261C33.812 50.3961 33.132 54.5121 35.248 51.9741C37.334 50.4501 33.448 53.8581 36.016 52.2461C37.876 51.0021 40.622 52.8361 42.356 53.4321C43.604 53.3721 44.816 54.5121 46.096 53.8181C48.556 53.1541 41.28 52.8341 43.188 51.6581C40.936 52.3141 39.272 50.8781 38.162 49.4341C35.634 48.8501 32.714 47.5581 31.452 45.3221C30.938 44.4821 32.192 45.4421 31.008 44.0681C29.488 42.7141 28.728 41.1761 27.704 39.5281C26.484 38.8781 26.338 36.9601 26.216 39.4641C26.226 37.8841 24.742 36.8181 24.376 37.2601C24.37 35.7401 25.966 36.5001 24.848 35.3761C24.608 33.7961 23.816 32.1561 23.58 30.3721C23.21 29.5121 23.528 27.6721 22.32 29.6181C21.88 31.6721 22.174 27.0941 22.86 28.6021C23.76 27.0621 22.536 27.2421 22.488 27.4561C23.074 26.1561 22.86 24.3121 22.334 25.0161C22.646 23.6361 22.828 19.9461 21.868 20.6001C22.448 19.1601 22.972 14.0061 20.444 15.9701C19.42 15.9841 17.648 16.3421 16.81 16.7581C19.436 18.2061 16.546 17.2821 15.474 17.0501C15.334 18.3901 14.274 17.8101 12.954 17.8241C15.07 18.0841 11.924 19.9841 10.714 19.2481C9.13802 20.0001 12.074 21.8801 10.744 22.4621C10.908 23.3361 8.33001 22.1461 8.53201 24.1701C7.00401 23.5261 8.32202 26.5701 9.08802 25.5401C11.688 26.2441 10.918 27.8481 10.984 29.3741C10.56 30.2621 8.89202 27.2861 10.612 27.4241C9.25202 25.2181 9.11202 26.6241 7.98202 27.6521C7.72202 27.7261 10.862 29.1121 8.89002 29.7921C10.624 30.0601 10.674 31.5781 11.026 32.5361C12.066 33.6221 11.852 31.3361 13.1 32.6421C12.31 31.4821 8.92001 29.3681 11.65 30.0421C11.636 28.8741 11.156 27.9301 11.994 27.9521C12.824 26.4521 11.126 31.6521 12.994 29.7441C13.51 29.5181 13.64 28.2441 14.568 29.8641C15.916 31.1921 15.056 32.1521 13.152 30.9361C13.492 32.0921 15.698 32.5041 15.282 34.3101C15.722 35.9001 16.336 35.3141 16.872 35.2221C17.272 36.7661 17.532 35.6301 17.552 34.8961C19.476 35.3081 19.024 36.4461 19.628 37.2401C20.954 37.8401 17.728 33.1841 20.008 35.8401C22.402 38.0001 20.908 38.9061 18.758 38.5601C20.118 38.4501 20.558 40.4001 22.258 40.3301C23.81 41.0701 24.858 43.9041 22.186 42.7221C21.26 41.8861 17.974 40.8541 20.658 42.4421C23.134 43.5901 25.102 44.2741 27.49 45.7161C29.198 46.9161 29.936 48.3321 30.584 48.6101C29.148 49.2961 26.256 48.0621 28.384 47.6841C27.044 47.4401 25.536 46.7641 26.82 48.4321C27.912 49.3441 30.686 49.2481 31.184 49.3521C30.764 50.2801 30.038 50.3521 31.2 50.4261C29.904 51.1181 31.616 51.2261 31.736 51.6201L31.752 51.6261ZM29.1 44.1381C28.31 43.3121 28.106 41.7681 28.96 43.1121C29.4 43.2881 30.36 45.6381 29.1 44.1381ZM37.74 49.6001C38.232 49.5681 37.754 49.9741 37.74 49.6001ZM27.86 42.0901C28.144 43.0501 27.828 40.8421 27.86 42.0901ZM27 40.9361C28.25 41.4761 26.006 39.0161 27 40.9361ZM16.596 33.7361C17.18 33.5801 16.884 34.7321 16.596 33.7361ZM24.876 38.2241C25.276 39.3521 25.236 36.8781 24.876 38.2241ZM19.026 34.1561C19.886 34.8521 18.614 33.4161 19.026 34.1561ZM24.046 35.7641C23.106 33.6581 24.714 34.6141 24.256 36.1081L24.046 35.7641ZM15.39 29.9921C14.99 29.3001 14.276 27.2721 14.5 26.6521C14.7 27.6601 16.644 30.9921 15.452 28.0521C14.136 25.5721 17.026 28.8561 17.324 29.4761C17.464 30.0901 16.512 29.3081 17.156 30.7521C15.98 29.1081 16.462 31.6601 15.392 30.0121L15.39 29.9921ZM12.716 28.1481C13.328 29.2481 12.826 26.5401 12.716 28.1481ZM13.92 28.5641C14.892 30.2541 14.494 27.3521 13.92 28.5641ZM11 26.3641C10.004 25.3741 9.28402 24.4641 11.048 25.7501C11.728 25.7761 9.53802 23.6761 11.212 25.0821C12.972 25.4021 12.08 27.9681 11.002 26.3621L11 26.3641ZM12.52 26.3241C13.1 25.7501 12.828 26.8881 12.52 26.3241ZM13.456 26.6241C14.52 27.3141 12.576 24.9801 13.456 26.6241ZM11.596 24.8481C8.70002 22.2681 15.236 26.1941 12.068 25.3281L11.596 24.8481ZM19.892 29.6681C18.638 28.9181 19.558 24.3801 19.986 27.4821C21.206 27.0881 19.918 29.0861 20.826 29.0661C20.686 30.3261 20.276 30.7821 19.892 29.6681ZM22.96 31.4821C23.22 32.4181 23.08 30.1141 22.96 31.4821ZM22.428 30.9541C22.568 30.3701 22.44 31.6421 22.428 30.9541ZM12.184 24.0001C10.324 21.4341 17.59 26.5961 13.376 24.6501C12.936 24.5341 12.406 24.4941 12.184 24.0001ZM18.094 27.1321C18.486 27.4921 17.918 24.9721 18.094 27.1321ZM22.58 30.0121C22.926 28.7821 22.606 30.8261 22.58 30.0121ZM12.47 23.0201C13.576 22.7841 17.07 24.9601 13.86 23.6401C13.506 23.2481 12.748 23.4261 12.47 23.0201ZM21.962 27.7521C22.082 25.5421 22.622 26.4321 21.966 28.0721L21.962 27.7521ZM13.292 22.2521C13.744 21.5921 12.096 19.2661 13.528 21.4181C14.128 21.9101 15.322 22.2421 14.288 22.4501C15.918 23.8901 13.888 22.8401 13.294 22.2501L13.292 22.2521ZM21.492 27.0641C21.802 24.5441 21.766 28.5381 21.492 27.0641ZM12.352 19.9281C12.696 19.7801 12.532 20.3881 12.352 19.9281ZM14.492 21.2021C15.508 22.4901 15.042 20.0461 14.492 21.2021ZM20.526 24.5581C20.64 25.2041 20.522 24.1181 20.526 24.5581ZM20.176 23.7861C20.976 24.8801 19.34 21.7201 20.176 23.7861ZM19.662 22.4301C20.142 23.5021 19.522 21.5761 19.662 22.4301ZM20.498 21.0701C19.922 20.0581 21.224 16.6101 21.37 18.7501C20.764 20.4181 21.196 21.3501 21.616 19.1101C22.396 17.3501 21.45 22.5841 20.498 21.0701ZM21.358 15.9381C21.608 15.6301 21.414 16.3081 21.358 15.9381ZM19.92 44.2401C19.964 44.4281 19.58 43.9401 19.92 44.2401ZM22.88 45.7361C24.526 46.1601 24.52 45.4801 23.03 45.2761C22.23 44.5321 19.706 43.7421 21.966 45.1841C22.114 45.5841 22.586 45.5561 22.88 45.7361ZM17.04 41.8561C17.946 42.5361 20.454 43.7721 18.332 42.1161C19.048 41.2841 16.962 40.8401 17.652 40.2841C15.892 39.2041 16.262 39.2841 17.496 39.3381C15.38 38.3921 17.802 38.4641 17.688 37.9781C16.872 37.8181 13.636 36.5381 15.54 38.0821C13.604 37.0961 15.08 38.4501 14.494 38.3081C12.494 37.7681 16.254 39.8161 14.18 39.3081C15.314 40.2081 17.236 41.6141 14.66 40.2601C14.32 40.7481 16.504 41.4901 17.06 41.8601L17.04 41.8561ZM20.134 43.6361C23.894 44.8481 18.288 42.1561 20.134 43.6361ZM35.974 53.2321C36.022 52.4841 35.46 53.8721 35.974 53.2321ZM37.602 53.9181C38.47 53.0781 37.638 55.2581 39.042 53.7121C39.056 52.6061 39.002 51.9521 37.43 53.2961C36.996 53.5361 36.804 54.5561 37.604 53.9161L37.602 53.9181ZM11.756 37.6801C11.49 36.6321 9.88801 36.6361 11.756 37.6801ZM13.496 38.8201C12.85 37.7501 11.192 37.8501 13.496 38.8201ZM23.388 44.7861C24.354 45.6461 27.824 45.4161 24.56 44.8921C24.08 44.1781 21.494 44.3521 23.388 44.7861ZM36.984 53.1861C38.47 51.9381 35.544 53.7421 36.984 53.1861ZM40.076 55.3101C40.086 54.9101 39.436 55.4841 40.076 55.3101ZM40.082 54.7501C41.728 53.0101 38.488 54.8501 40.082 54.7501ZM7.48002 34.1001C6.08002 32.1001 6.60802 31.2001 5.25602 29.5661C5.00002 28.3161 2.93602 25.4801 4.18802 28.4861C5.33602 30.2461 5.67602 32.9661 7.48002 34.1061V34.1001ZM39.56 54.1921C42.59 52.2361 38.32 53.3401 39.56 54.1921ZM41.872 55.0981C43.392 53.7981 40.912 54.8261 41.872 55.0981ZM11.24 35.4701C11.674 34.8241 10.12 35.3861 11.24 35.4701ZM41.39 54.4801C42.858 53.5341 41.05 53.6801 41.124 54.5661L41.39 54.4801ZM21.466 41.9201C21.416 41.2801 20.69 41.9741 21.466 41.9201ZM22.696 42.6281C22.304 41.8361 22.096 42.7521 22.696 42.6281ZM43.746 55.1181C45.626 53.7581 42.606 54.8581 43.352 55.3781L43.746 55.1181ZM43.026 54.7701C44.56 53.4861 41.406 55.3381 43.026 54.7701ZM46.706 57.2201C47.734 56.5321 45.456 57.0001 46.706 57.2201ZM12.186 35.0001C13.566 35.3081 17.696 38.3961 15.26 35.2141C14.012 34.8441 14.76 31.7941 13.486 32.3341C14.34 33.7621 14.186 34.3701 12.394 33.4701C10.14 32.3701 11.128 34.0141 11.568 34.4701C10.968 34.6101 12.362 34.9901 12.188 35.0021L12.186 35.0001ZM5.90602 30.0401C6.15202 29.0201 3.63202 24.4201 4.71602 27.7361C5.10602 28.4301 5.06602 29.7461 5.90602 30.0401ZM17.438 37.1501C17.404 37.0661 16.726 36.5561 17.438 37.1501ZM19.186 37.5581C19.186 36.4781 17.254 37.1181 19.186 37.5581ZM34.34 47.1101C34.05 46.3701 33.2 47.0941 34.34 47.1101ZM35.068 47.6421C34.96 47.2281 34.668 47.7221 35.068 47.6421ZM41.074 51.4261C41.654 51.0001 40.354 51.3701 41.074 51.4261ZM9.04002 30.8441C10.692 30.2041 7.27002 30.3881 9.04002 30.8441ZM33 45.9401C32.98 44.8701 31.946 46.2061 33 45.9401ZM8.38601 29.3201C9.44601 28.9601 7.40601 29.0841 8.38601 29.3201ZM11.466 30.8121C11.446 30.4601 11.14 30.9461 11.466 30.8121ZM49.042 53.8521C50.406 53.5761 53.518 54.5461 54.022 53.4921C52.362 53.4521 48.288 52.3221 48.096 53.7601L48.456 53.8201L49.042 53.8561V53.8521ZM12.446 31.0601C12.47 29.9761 11.602 31.0201 12.446 31.0601ZM4.34602 25.4401C3.97802 23.3761 2.94602 25.1281 4.34602 25.4401ZM6.27602 25.9261C6.30002 25.2621 4.50802 25.3301 6.27602 25.9261ZM7.38002 26.4661C7.13202 26.7921 7.06002 26.2061 7.38002 26.4661ZM14.326 30.9201C14.654 30.6201 13.552 30.7001 14.326 30.9201ZM6.64602 25.2401C6.45802 23.6801 4.40602 25.0061 6.64602 25.2401ZM2.68602 22.6701C2.63002 21.9501 2.30002 22.9421 2.68602 22.6701ZM3.27602 22.2261C3.18002 21.3721 2.77002 22.3341 3.27602 22.2261ZM6.53002 24.1661C7.90602 23.6261 4.02402 23.0461 6.25002 24.0661L6.53002 24.1661ZM50.086 51.0801C50.966 50.2721 48.966 50.8301 50.086 51.0801ZM55.346 53.8061C55.7 52.7661 54.456 53.9461 55.346 53.8061ZM6.86002 22.4701C7.00602 21.4601 5.76802 22.6701 6.86002 22.4701ZM2.22802 19.3701C1.98402 17.9401 2.02002 15.4401 4.39602 16.2841C1.22202 16.9161 6.59602 20.2321 5.91602 17.6121C7.25202 17.6781 8.52802 16.8221 7.82602 18.1181C10.46 17.8321 12.28 15.5481 14.824 15.8701C16.824 15.6061 18.968 15.4101 21.104 14.6101C22.858 14.4841 24.544 12.5961 23.584 11.4761C21.192 11.2761 18.688 11.5721 16.044 12.1001C13.114 12.7081 10.454 13.8661 7.49802 14.3601C4.61802 14.7481 8.07802 15.4261 7.25202 15.5801C5.75202 16.1001 9.04602 16.4521 7.05802 17.0041C5.83002 16.7701 4.55202 16.3481 5.07802 15.0541C2.31802 15.4141 -0.107985 16.5581 2.07402 19.3661L2.23402 19.3681L2.22802 19.3701ZM8.88402 16.0001C9.53002 13.6161 12.35 17.9601 9.94402 16.3201C9.65802 16.1041 9.18402 15.9301 8.88402 16.0001ZM9.01002 14.8441C9.94402 14.1501 9.50602 15.2341 9.01002 14.8441ZM10.196 14.8641C10.282 13.7681 12.912 15.4641 10.63 15.2581L10.196 14.8641ZM11.816 14.2121C12.41 13.5181 11.988 14.8261 11.816 14.2121ZM12.232 13.9321C13.22 12.7461 17.818 13.1721 14.432 13.8161C13.532 13.1361 12.838 14.2161 12.232 13.9321ZM18.232 13.0061C21.216 14.1561 18.084 9.76612 18.232 13.0061ZM19.936 12.9961C20.556 11.3641 22.356 12.3401 20.226 12.6681C20.272 12.8421 20.162 13.5121 19.936 12.9961ZM6.19002 21.6501C8.05002 20.5101 4.21602 20.6621 6.19002 21.6501ZM7.56602 22.0501C8.21802 21.3561 6.16602 21.7701 7.56602 22.0501ZM3.51402 19.1401C4.57402 18.3201 2.25402 18.8301 3.51402 19.1401ZM58.454 53.5101C58.484 52.5621 57.642 53.9361 58.454 53.5101ZM52.874 49.7001C53.034 48.6101 52.154 49.7941 52.874 49.7001ZM59.994 53.8801C61.48 53.8861 64.498 53.4201 61.264 53.4201C60.756 53.5001 58.304 53.4801 59.994 53.8801ZM8.78001 21.3461C9.98401 21.2661 10.66 20.0201 8.54601 20.0901C5.26601 19.7501 11.438 21.2141 8.14602 20.7941C7.70202 21.0881 8.77402 21.4261 8.80002 21.3441L8.78001 21.3461ZM9.84002 21.8821C9.71402 21.1101 9.46802 22.2921 9.84002 21.8821ZM11.1 18.5301C11.62 17.8821 10.38 18.3561 11.1 18.5301ZM7.10002 11.8421C9.24802 11.1121 12.184 10.2921 13.2 12.2021C12.168 10.9621 12.784 9.73812 13.76 11.5541C15.14 13.3901 15.828 10.7181 14.932 10.1021C15.952 11.3701 17.112 11.9701 15.616 10.1821C17.246 8.22212 12.356 10.4381 11.244 10.4161C10.71 10.6561 5.72402 11.6881 7.10402 11.8421H7.10002ZM8.36001 9.43212C9.58401 8.50812 12.596 9.98212 10.664 8.51212C10.474 8.34612 6.43401 9.62612 8.36001 9.43212ZM12.824 9.61612C14.256 9.65212 12.204 7.69012 13.912 8.58012C13.632 7.66412 11.924 7.49412 11.088 7.12612C10.616 7.96212 12.048 9.62612 12.822 9.61612H12.824ZM9.14402 5.56412C9.64002 4.89212 8.27402 5.90412 9.14402 5.56412ZM10.96 6.00012C13.27 5.69412 10.372 5.00612 10.494 5.97612L10.96 6.00012ZM7.55202 3.34012C5.92602 1.21612 10.612 3.69612 8.95802 1.47412C7.56602 0.368116 6.23202 2.72212 7.55202 3.34012ZM28.42 14.5801C29.166 13.2601 25.34 12.8001 27.92 14.1121C28.156 14.1921 28.104 14.6721 28.42 14.5801Z" fill="white"/>
</svg>
