<svg width="64" height="60" viewBox="0 0 64 60" fill="none" xmlns="http://www.w3.org/2000/svg">
<path d="M18.2338 57.7776C18.1857 57.7776 18.1384 57.7661 18.0958 57.744C18.0531 57.722 18.0163 57.6901 17.9885 57.651L0.0552599 32.2549C0.024812 32.2118 0.00623287 32.1615 0.00139111 32.1089C-0.00345064 32.0564 0.0056154 32.0035 0.027675 31.9555L13.0162 3.69991C13.0382 3.65195 13.0725 3.61063 13.1155 3.58016C13.1586 3.54968 13.209 3.53111 13.2615 3.52634L44.1825 0.666391C44.2352 0.659998 44.2886 0.668379 44.3368 0.690593C44.385 0.712808 44.4261 0.747982 44.4554 0.792191L62.3887 26.1879C62.4191 26.231 62.4377 26.2813 62.4425 26.3339C62.4474 26.3864 62.4383 26.4393 62.4163 26.4872L49.4281 54.7437C49.406 54.7916 49.3717 54.8328 49.3286 54.8632C49.2856 54.8937 49.2353 54.9123 49.1828 54.9173L18.2614 57.7768C18.2523 57.7776 18.2428 57.7776 18.2338 57.7776ZM0.646024 32.0494L18.3788 57.1621L48.9548 54.3344L61.7979 26.3933L44.0651 1.28062L13.4895 4.10828L0.646024 32.0494Z" fill="white"/>
<path d="M18.126 57.7131L13.1629 31.8734L13.1387 3.62451L37.3193 10.7419L62.3933 26.3405L43.7708 42.8939L18.126 57.7131ZM13.4397 4.02619L13.4606 31.8449L18.3415 57.2419L43.5959 42.6516L61.8935 26.3825L37.1779 11.0077L13.4397 4.02619Z" fill="white"/>
<path d="M37.7162 11.9262C38.2135 11.9262 38.6167 11.5231 38.6167 11.0257C38.6167 10.5284 38.2135 10.1252 37.7162 10.1252C37.2188 10.1252 36.8157 10.5284 36.8157 11.0257C36.8157 11.5231 37.2188 11.9262 37.7162 11.9262Z" fill="white"/>
<path d="M37.7162 12.8838C37.3487 12.8842 36.9893 12.7756 36.6835 12.5716C36.3777 12.3677 36.1392 12.0776 35.9983 11.7382C35.8574 11.3987 35.8203 11.025 35.8918 10.6645C35.9633 10.304 36.1401 9.97271 36.3998 9.71266C36.6596 9.45262 36.9906 9.27546 37.3511 9.20359C37.7116 9.13172 38.0852 9.16838 38.4249 9.30892C38.7645 9.44947 39.0548 9.68759 39.2591 9.99316C39.4634 10.2987 39.5724 10.658 39.5725 11.0256C39.5721 11.518 39.3765 11.9901 39.0285 12.3384C38.6805 12.6868 38.2086 12.8829 37.7162 12.8838ZM37.7162 10.9719L37.6605 11.0256C37.6607 11.0401 37.6668 11.0539 37.6772 11.0641C37.6877 11.0742 37.7017 11.0798 37.7162 11.0796V10.9719Z" fill="white"/>
<path d="M43.7277 43.6281C44.225 43.6281 44.6282 43.225 44.6282 42.7276C44.6282 42.2303 44.225 41.8271 43.7277 41.8271C43.2304 41.8271 42.8272 42.2303 42.8272 42.7276C42.8272 43.225 43.2304 43.6281 43.7277 43.6281Z" fill="white"/>
<path d="M43.7276 44.5862C43.36 44.5865 43.0005 44.4778 42.6947 44.2738C42.3889 44.0698 42.1505 43.7797 42.0096 43.4402C41.8686 43.1007 41.8316 42.727 41.9031 42.3664C41.9746 42.0058 42.1515 41.6745 42.4113 41.4145C42.6711 41.1544 43.0022 40.9773 43.3628 40.9055C43.7233 40.8336 44.097 40.8703 44.4367 41.0109C44.7763 41.1515 45.0666 41.3897 45.2709 41.6954C45.4752 42.001 45.5842 42.3603 45.5842 42.7279C45.5839 43.2204 45.3882 43.6926 45.0402 44.041C44.6921 44.3894 44.22 44.5855 43.7276 44.5862ZM43.7276 42.6742L43.6722 42.7279C43.6725 42.7423 43.6785 42.7561 43.6888 42.7661C43.6992 42.7762 43.7131 42.7817 43.7276 42.7816V42.6742Z" fill="white"/>
<path d="M18.4541 58.3781C18.9514 58.3781 19.3546 57.975 19.3546 57.4776C19.3546 56.9803 18.9514 56.5771 18.4541 56.5771C17.9568 56.5771 17.5536 56.9803 17.5536 57.4776C17.5536 57.975 17.9568 58.3781 18.4541 58.3781Z" fill="white"/>
<path d="M18.4539 59.3357C18.0863 59.336 17.7268 59.2273 17.421 59.0233C17.1152 58.8193 16.8768 58.5292 16.7359 58.1897C16.595 57.8502 16.5579 57.4765 16.6294 57.1159C16.7009 56.7553 16.8778 56.4241 17.1376 56.164C17.3974 55.904 17.7285 55.7268 18.0891 55.655C18.4496 55.5831 18.8233 55.6198 19.1629 55.7604C19.5026 55.901 19.7929 56.1392 19.9972 56.4448C20.2014 56.7505 20.3105 57.1098 20.3105 57.4774C20.3102 57.9699 20.1146 58.4421 19.7665 58.7905C19.4184 59.1389 18.9464 59.335 18.4539 59.3357ZM18.4539 57.4237L18.3986 57.4774C18.3988 57.4918 18.4048 57.5056 18.4152 57.5156C18.4255 57.5257 18.4394 57.5312 18.4539 57.5311V57.4237Z" fill="white"/>
<path d="M13.2889 33.0461C13.7863 33.0461 14.1894 32.6429 14.1894 32.1456C14.1894 31.6483 13.7863 31.2451 13.2889 31.2451C12.7916 31.2451 12.3884 31.6483 12.3884 32.1456C12.3884 32.6429 12.7916 33.0461 13.2889 33.0461Z" fill="white"/>
<path d="M13.2892 34.0033C12.9216 34.0036 12.5622 33.8949 12.2565 33.691C11.9507 33.487 11.7123 33.197 11.5715 32.8575C11.4306 32.518 11.3936 32.1444 11.4652 31.7839C11.5367 31.4234 11.7135 31.0922 11.9733 30.8322C12.2331 30.5722 12.5642 30.3951 12.9247 30.3234C13.2851 30.2516 13.6588 30.2884 13.9984 30.429C14.3379 30.5696 14.6282 30.8078 14.8323 31.1134C15.0365 31.419 15.1454 31.7783 15.1453 32.1459C15.1448 32.6381 14.9491 33.1101 14.6012 33.4582C14.2532 33.8064 13.7814 34.0024 13.2892 34.0033ZM13.2892 32.0914L13.2334 32.1459C13.2338 32.1603 13.2399 32.174 13.2503 32.1841C13.2607 32.1941 13.2747 32.1996 13.2892 32.1995V32.0914Z" fill="white"/>
<path d="M62.1434 27.3069C62.6407 27.3069 63.0439 26.9037 63.0439 26.4064C63.0439 25.909 62.6407 25.5059 62.1434 25.5059C61.6461 25.5059 61.2429 25.909 61.2429 26.4064C61.2429 26.9037 61.6461 27.3069 62.1434 27.3069Z" fill="white"/>
<path d="M62.1434 28.264C61.7759 28.2643 61.4166 28.1555 61.1109 27.9515C60.8052 27.7475 60.5668 27.4574 60.426 27.1179C60.2852 26.7785 60.2483 26.4048 60.3199 26.0444C60.3915 25.6839 60.5683 25.3527 60.8282 25.0928C61.088 24.8329 61.4191 24.6558 61.7795 24.5841C62.14 24.5123 62.5136 24.5491 62.8531 24.6898C63.1927 24.8304 63.4829 25.0686 63.687 25.3742C63.8912 25.6798 64.0001 26.0391 64 26.4066C63.9995 26.8989 63.8037 27.3709 63.4557 27.7191C63.1076 28.0673 62.6357 28.2633 62.1434 28.264ZM62.1434 26.3521L62.0881 26.4066C62.0883 26.4211 62.0943 26.4348 62.1047 26.4449C62.115 26.4549 62.129 26.4605 62.1434 26.4603V26.3521Z" fill="white"/>
<path d="M13.2889 4.7258C13.7863 4.7258 14.1894 4.32263 14.1894 3.8253C14.1894 3.32797 13.7863 2.9248 13.2889 2.9248C12.7916 2.9248 12.3884 3.32797 12.3884 3.8253C12.3884 4.32263 12.7916 4.7258 13.2889 4.7258Z" fill="white"/>
<path d="M13.2891 5.68365C12.9216 5.68403 12.5622 5.57538 12.2564 5.37145C11.9506 5.16751 11.7121 4.87746 11.5712 4.53799C11.4303 4.19852 11.3932 3.82488 11.4647 3.46433C11.5361 3.10379 11.7129 2.77253 11.9727 2.51248C12.2324 2.25243 12.5635 2.07527 12.924 2.0034C13.2844 1.93153 13.6581 1.96818 13.9977 2.10873C14.3374 2.24927 14.6277 2.48739 14.8319 2.79296C15.0362 3.09853 15.1453 3.45782 15.1453 3.82538C15.145 4.31775 14.9493 4.78988 14.6014 5.13824C14.2534 5.48659 13.7815 5.68274 13.2891 5.68365ZM13.2891 3.77171L13.2333 3.82539C13.2336 3.83994 13.2396 3.85378 13.2501 3.86391C13.2605 3.87403 13.2746 3.87961 13.2891 3.87944L13.2891 3.77171Z" fill="white"/>
<path d="M49.1552 54.918C49.1211 54.9183 49.0872 54.9127 49.055 54.9014L25.4786 46.5785L0.153347 32.343C0.111932 32.3198 0.0766159 32.2871 0.050301 32.2476C0.0239862 32.2081 0.00742513 32.1629 0.00197989 32.1157C-0.00346535 32.0686 0.00235995 32.0208 0.0189783 31.9763C0.0355967 31.9319 0.0625318 31.892 0.0975699 31.86L19.1516 14.4001L44.0655 0.702038C44.1062 0.679443 44.1517 0.666693 44.1982 0.664798C44.2447 0.662903 44.291 0.671919 44.3335 0.691128C44.3758 0.710303 44.4132 0.739013 44.4427 0.775016C44.4721 0.811019 44.4929 0.853342 44.5033 0.898682L50.0852 25.4378L49.4555 54.6246C49.4544 54.6721 49.442 54.7187 49.4195 54.7605C49.397 54.8023 49.3649 54.8382 49.3259 54.8653C49.2757 54.8999 49.2162 54.9183 49.1552 54.918ZM0.809121 32.0226L25.726 46.0334L48.8638 54.1969L49.4919 25.4976L44.0056 1.42019L19.4992 14.8847L0.809121 32.0226Z" fill="white"/>
<path d="M43.8257 42.841L43.7028 42.7991L13.1415 32.1744L13.2401 32.0889L37.7657 10.8835L43.8257 42.841ZM13.4367 32.1174L43.6294 42.6146L37.6668 11.1678L13.4367 32.1174Z" fill="white"/>
<path d="M25.3834 46.8586L18.9579 14.1606L50.38 25.3954L25.3834 46.8586ZM19.7512 15.0822L25.7742 45.7316L49.2043 25.6134L19.7512 15.0822Z" fill="white"/>
<path d="M13.5512 3.67799L13.0271 3.97241L19.0925 14.7686L19.6165 14.4742L13.5512 3.67799Z" fill="white"/>
<path d="M25.3258 46.1328L25.8323 46.4571L18.707 57.6392L18.2005 57.3157L25.3258 46.1328Z" fill="white"/>
<path d="M49.814 25.2048L49.7703 25.8037L62.1216 26.706L62.1653 26.1071L49.814 25.2048Z" fill="white"/>
</svg>
