<svg width="83" height="74" viewBox="0 0 83 74" fill="none" xmlns="http://www.w3.org/2000/svg">
<path d="M41.6837 44.1086C45.7844 44.1086 49.1086 40.7844 49.1086 36.6837C49.1086 32.583 45.7844 29.2588 41.6837 29.2588C37.583 29.2588 34.2588 32.583 34.2588 36.6837C34.2588 40.7844 37.583 44.1086 41.6837 44.1086Z" fill="#61DAFB"/>
<path d="M69.8853 24.4391C68.4524 23.9181 66.9544 23.3971 65.3913 22.9411C65.7821 21.378 66.1077 19.8149 66.3682 18.3169C67.736 9.71959 66.238 3.66243 62.0696 1.31773C60.8321 0.601288 59.4644 0.275635 57.9013 0.275635C53.3421 0.275635 47.5455 3.66243 41.6837 9.32881C35.8219 3.66243 30.0253 0.275635 25.4661 0.275635C23.903 0.275635 22.5353 0.601288 21.2978 1.31773C17.1294 3.72756 15.6314 9.78472 16.9992 18.3169C17.2597 19.8149 17.5853 21.378 17.9761 22.9411C16.413 23.3971 14.915 23.853 13.4821 24.4391C5.34076 27.5654 0.911865 31.864 0.911865 36.6837C0.911865 41.5034 5.40589 45.802 13.4821 48.9283C14.915 49.4494 16.413 49.9704 17.9761 50.4263C17.5853 51.9895 17.2597 53.5526 16.9992 55.0506C15.6314 63.6479 17.1294 69.705 21.2978 72.0497C22.5353 72.7662 23.903 73.0918 25.4661 73.0918C30.0904 73.0918 35.8871 69.705 41.6837 64.0386C47.5455 69.705 53.3421 73.0918 57.9013 73.0918C59.4644 73.0918 60.8321 72.7662 62.0696 72.0497C66.238 69.6399 67.736 63.5827 66.3682 55.0506C66.1077 53.5526 65.7821 51.9895 65.3913 50.4263C66.9544 49.9704 68.4524 49.5145 69.8853 48.9283C78.0266 45.802 82.4555 41.5034 82.4555 36.6837C82.4555 31.864 78.0266 27.5654 69.8853 24.4391ZM60.246 4.57426C62.9163 6.1374 63.8282 10.9571 62.7209 17.7958C62.5255 19.1636 62.1999 20.5964 61.8091 22.0944C58.4223 21.3129 54.8401 20.7918 51.0625 20.4662C48.8481 17.3399 46.5685 14.5393 44.2889 11.9992C49.1086 7.24463 53.9934 3.98809 57.9664 3.98809C58.8131 3.98809 59.5947 4.18348 60.246 4.57426ZM52.9513 43.1968C51.779 45.281 50.4112 47.3652 48.9783 49.4494C46.5685 49.6447 44.1587 49.7099 41.6837 49.7099C39.1436 49.7099 36.7338 49.6447 34.3891 49.4494C32.9562 47.3652 31.6536 45.281 30.4812 43.1968C29.2437 41.0475 28.0714 38.833 27.0293 36.6837C28.0714 34.5344 29.2437 32.32 30.4812 30.1707C31.6536 28.0865 33.0213 26.0023 34.4542 23.9181C36.864 23.7227 39.2739 23.6576 41.7488 23.6576C44.2889 23.6576 46.6988 23.7227 49.0435 23.9181C50.4763 26.0023 51.779 28.0865 52.9513 30.1707C54.1888 32.32 55.3612 34.5344 56.4032 36.6837C55.296 38.833 54.1888 40.9824 52.9513 43.1968ZM58.3572 41.0475C59.3341 43.3271 60.1157 45.5415 60.8321 47.756C58.6177 48.277 56.273 48.6678 53.798 48.9934C54.5796 47.756 55.4263 46.4533 56.1427 45.0856C56.9243 43.7178 57.6407 42.3501 58.3572 41.0475ZM41.6837 58.6979C40.1206 57.0045 38.6226 55.1809 37.1897 53.2921C38.6877 53.3572 40.1857 53.4223 41.6837 53.4223C43.1817 53.4223 44.6797 53.3572 46.1777 53.2921C44.7448 55.1809 43.2468 57.0045 41.6837 58.6979ZM29.5694 48.9283C27.0944 48.6027 24.7497 48.2119 22.5353 47.6908C23.2517 45.5415 24.0333 43.2619 25.0102 40.9824C25.7267 42.285 26.4431 43.6527 27.2247 44.9553C28.0062 46.3882 28.7878 47.6257 29.5694 48.9283ZM25.0102 32.32C24.0333 30.0404 23.2517 27.8259 22.5353 25.6115C24.7497 25.0905 27.0944 24.6997 29.5694 24.374C28.7878 25.6115 27.9411 26.9141 27.2247 28.2819C26.4431 29.6496 25.7267 31.0173 25.0102 32.32ZM41.6837 14.6695C43.2468 16.3629 44.7448 18.1866 46.1777 20.0754C44.6797 20.0103 43.1817 19.9451 41.6837 19.9451C40.1857 19.9451 38.6877 20.0103 37.1897 20.0754C38.6226 18.1866 40.1206 16.3629 41.6837 14.6695ZM56.1427 28.347L53.798 24.4391C56.273 24.7648 58.6177 25.1556 60.8321 25.6766C60.1157 27.8259 59.3341 30.1055 58.3572 32.3851C57.6407 31.0174 56.9243 29.6496 56.1427 28.347ZM20.6465 17.7958C19.5393 10.9571 20.4511 6.1374 23.1214 4.57426C23.7728 4.18348 24.5543 3.98809 25.401 3.98809C29.3089 3.98809 34.1937 7.17949 39.0785 11.9992C36.7989 14.4741 34.5193 17.3399 32.3049 20.4662C28.5273 20.7918 24.9451 21.378 21.5583 22.0944C21.1675 20.5964 20.907 19.1636 20.6465 17.7958ZM4.55919 36.6837C4.55919 33.6226 8.27164 30.366 14.7847 27.9562C16.0873 27.4352 17.5202 26.9792 18.9531 26.5885C19.9952 29.845 21.2978 33.2969 22.8609 36.7489C21.2978 40.2008 19.93 43.5876 18.9531 46.8441C9.96504 44.2389 4.55919 40.331 4.55919 36.6837ZM23.1214 68.7932C20.4511 67.23 19.5393 62.4104 20.6465 55.5716C20.8419 54.2039 21.1675 52.771 21.5583 51.273C24.9451 52.0546 28.5273 52.5756 32.3049 52.9013C34.5193 56.0276 36.7989 58.8282 39.0785 61.3683C34.2588 66.1228 29.374 69.3794 25.401 69.3794C24.5543 69.3794 23.7728 69.184 23.1214 68.7932ZM62.7209 55.5716C63.8282 62.4104 62.9163 67.23 60.246 68.7932C59.5947 69.184 58.8131 69.3794 57.9664 69.3794C54.0585 69.3794 49.1737 66.188 44.2889 61.3683C46.5685 58.8933 48.8481 56.0276 51.0625 52.9013C54.8401 52.5756 58.4223 51.9895 61.8091 51.273C62.1999 52.771 62.4604 54.2039 62.7209 55.5716ZM68.5827 45.4112C67.2801 45.9323 65.8472 46.3882 64.4143 46.779C63.3722 43.5225 62.0696 40.0705 60.5065 36.6186C62.0696 33.1667 63.4374 29.7799 64.4143 26.5233C73.4024 29.1286 78.8082 33.0364 78.8082 36.6837C78.8082 39.7449 75.0306 43.0014 68.5827 45.4112Z" fill="#61DAFB"/>
</svg>
